<svg width="1280" height="437" viewBox="0 0 338.667 115.623" version="1.1" id="svg5" xmlns:xlink="http://www.w3.org/1999/xlink" xmlns="http://www.w3.org/2000/svg">
    <defs id="defs2">
        <filter style="color-interpolation-filters:sRGB" id="filter5099" x="0" y="0" width="1" height="1">
            <feTurbulence type="fractalNoise" baseFrequency="10 10" numOctaves="5" seed="1" result="turbulence" id="feTurbulence5083"/>
            <feComposite in="SourceGraphic" in2="turbulence" operator="out" result="composite1" id="feComposite5085"/>
            <feColorMatrix values="1 0 0 0 0 0 1 0 0 0 0 0 1 0 0 0 0 0 3.5 -2" result="color" id="feColorMatrix5087"/>
            <feFlood flood-opacity="0" flood-color="#000" result="flood" id="feFlood5089"/>
            <feMerge result="merge" id="feMerge5095">
                <feMergeNode in="flood" id="feMergeNode5091"/>
                <feMergeNode in="color" id="feMergeNode5093"/>
            </feMerge>
            <feComposite in2="SourceGraphic" operator="in" result="fbSourceGraphic" id="feComposite5097"/>
            <feColorMatrix result="fbSourceGraphicAlpha" in="fbSourceGraphic" values="0 0 0 -1 0 0 0 0 -1 0 0 0 0 -1 0 0 0 0 1 0" id="feColorMatrix968"/>
            <feColorMatrix id="feColorMatrix970" values="1 0 0 0 0 0 1 0 0 0 0 0 1 0 0 0 0 0 1000 -500" in="fbSourceGraphic"/>
        </filter>
        <filter style="color-interpolation-filters:sRGB" id="filter2876" x="-.038" y="-.032" width="1.076" height="1.063">
            <feFlood flood-opacity=".251" flood-color="#000" result="flood" id="feFlood2866"/>
            <feComposite in="flood" in2="SourceGraphic" operator="in" result="composite1" id="feComposite2868"/>
            <feGaussianBlur in="composite1" stdDeviation=".1" result="blur" id="feGaussianBlur2870"/>
            <feOffset dx="0" dy="0" result="offset" id="feOffset2872"/>
            <feComposite in="offset" in2="SourceGraphic" operator="out" result="composite2" id="feComposite2874"/>
        </filter>
        <filter style="color-interpolation-filters:sRGB" id="filter4999" x="-.168" y="-.142" width="1.335" height="1.283">
            <feFlood flood-opacity=".6" flood-color="#000" result="flood" id="feFlood4989"/>
            <feComposite in="flood" in2="SourceGraphic" operator="in" result="composite1" id="feComposite4991"/>
            <feGaussianBlur in="composite1" stdDeviation=".5" result="blur" id="feGaussianBlur4993"/>
            <feOffset dx="0" dy="0" result="offset" id="feOffset4995"/>
            <feComposite in="offset" in2="SourceGraphic" operator="out" result="composite2" id="feComposite4997"/>
        </filter>
        <filter style="color-interpolation-filters:sRGB" id="filter5011" x="-.247" y="-.21" width="1.495" height="1.42">
            <feFlood flood-opacity=".6" flood-color="#000" result="flood" id="feFlood5001"/>
            <feComposite in="flood" in2="SourceGraphic" operator="in" result="composite1" id="feComposite5003"/>
            <feGaussianBlur in="composite1" stdDeviation=".5" result="blur" id="feGaussianBlur5005"/>
            <feOffset dx="0" dy="0" result="offset" id="feOffset5007"/>
            <feComposite in="offset" in2="SourceGraphic" operator="out" result="composite2" id="feComposite5009"/>
        </filter>
        <filter style="color-interpolation-filters:sRGB" id="filter5023" x="-.238" y="-.144" width="1.476" height="1.287">
            <feFlood flood-opacity=".6" flood-color="#000" result="flood" id="feFlood5013"/>
            <feComposite in="flood" in2="SourceGraphic" operator="in" result="composite1" id="feComposite5015"/>
            <feGaussianBlur in="composite1" stdDeviation=".5" result="blur" id="feGaussianBlur5017"/>
            <feOffset dx="0" dy="0" result="offset" id="feOffset5019"/>
            <feComposite in="offset" in2="SourceGraphic" operator="out" result="composite2" id="feComposite5021"/>
        </filter>
        <filter style="color-interpolation-filters:sRGB" id="filter5035" x="-.676" y="-.672" width="2.352" height="2.344">
            <feFlood flood-opacity=".6" flood-color="#000" result="flood" id="feFlood5025"/>
            <feComposite in="flood" in2="SourceGraphic" operator="in" result="composite1" id="feComposite5027"/>
            <feGaussianBlur in="composite1" stdDeviation=".5" result="blur" id="feGaussianBlur5029"/>
            <feOffset dx="0" dy="0" result="offset" id="feOffset5031"/>
            <feComposite in="offset" in2="SourceGraphic" operator="out" result="composite2" id="feComposite5033"/>
        </filter>
        <filter style="color-interpolation-filters:sRGB" id="filter5047" x="-.836" y="-.218" width="2.672" height="1.437">
            <feFlood flood-opacity=".6" flood-color="#000" result="flood" id="feFlood5037"/>
            <feComposite in="flood" in2="SourceGraphic" operator="in" result="composite1" id="feComposite5039"/>
            <feGaussianBlur in="composite1" stdDeviation=".5" result="blur" id="feGaussianBlur5041"/>
            <feOffset dx="0" dy="0" result="offset" id="feOffset5043"/>
            <feComposite in="offset" in2="SourceGraphic" operator="out" result="composite2" id="feComposite5045"/>
        </filter>
        <filter style="color-interpolation-filters:sRGB" id="filter5059" x="-.187" y="-.151" width="1.374" height="1.302">
            <feFlood flood-opacity=".6" flood-color="#000" result="flood" id="feFlood5049"/>
            <feComposite in="flood" in2="SourceGraphic" operator="in" result="composite1" id="feComposite5051"/>
            <feGaussianBlur in="composite1" stdDeviation=".5" result="blur" id="feGaussianBlur5053"/>
            <feOffset dx="0" dy="0" result="offset" id="feOffset5055"/>
            <feComposite in="offset" in2="SourceGraphic" operator="out" result="composite2" id="feComposite5057"/>
        </filter>
        <filter style="color-interpolation-filters:sRGB" id="filter5071" x="-.817" y="-.153" width="2.633" height="1.306">
            <feFlood flood-opacity=".6" flood-color="#000" result="flood" id="feFlood5061"/>
            <feComposite in="flood" in2="SourceGraphic" operator="in" result="composite1" id="feComposite5063"/>
            <feGaussianBlur in="composite1" stdDeviation=".5" result="blur" id="feGaussianBlur5065"/>
            <feOffset dx="0" dy="0" result="offset" id="feOffset5067"/>
            <feComposite in="offset" in2="SourceGraphic" operator="out" result="composite2" id="feComposite5069"/>
        </filter>
        <filter style="color-interpolation-filters:sRGB" id="filter2663" x="-.045" y="-.045" width="1.091" height="1.09">
            <feFlood flood-opacity=".251" flood-color="#000" result="flood" id="feFlood2653"/>
            <feComposite in="flood" in2="SourceGraphic" operator="out" result="composite1" id="feComposite2655"/>
            <feGaussianBlur in="composite1" stdDeviation=".1" result="blur" id="feGaussianBlur2657"/>
            <feOffset dx="0" dy="0" result="offset" id="feOffset2659"/>
            <feComposite in="offset" in2="SourceGraphic" operator="in" result="composite2" id="feComposite2661"/>
        </filter>
        <pattern xlink:href="#pattern1484" id="pattern2921" patternTransform="matrix(.55081 0 0 1.95844 21.306 .019)"/>
        <pattern xlink:href="#pattern1484" id="pattern2567" patternTransform="matrix(2.24896 0 0 1.32292 -1.063 -1.285)"/>
        <pattern patternUnits="userSpaceOnUse" width="4" height="1" patternTransform="translate(.981 -14.855)" id="pattern1484">
            <path style="fill:#c28f48;fill-opacity:1;stroke:none;stroke-width:12;stroke-miterlimit:1" id="rect1236" d="M0 0h1v1H0z"/>
            <path style="fill:#4a8f66;fill-opacity:1;stroke:none;stroke-width:12;stroke-miterlimit:1" id="rect1326" d="M1 0h1v1H1z"/>
            <path style="fill:#5a85af;fill-opacity:1;stroke:none;stroke-width:12;stroke-miterlimit:1" id="rect1328" d="M2 0h1v1H2z"/>
            <path style="fill:#bc604d;fill-opacity:1;stroke:none;stroke-width:12;stroke-miterlimit:1" id="rect1330" d="M3 0h1v1H3z"/>
        </pattern>
        <meshgradient id="meshgradient2175" gradientUnits="userSpaceOnUse" x=".132" y=".132" gradientTransform="matrix(1.00078 0 0 .68388 -.132 26.765)">
            <meshrow id="meshrow2177">
                <meshpatch id="meshpatch2179">
                    <stop path="c 56.4004,0 112.801,0 169.201,0" style="stop-color:#538198;stop-opacity:1" id="stop2181"/>
                    <stop path="c 0,28.1782 0,56.3564 0,84.5345" style="stop-color:#538198;stop-opacity:1" id="stop2183"/>
                    <stop path="c -56.4004,0 -112.801,0 -169.201,0" style="stop-color:#638fa5;stop-opacity:1" id="stop2185"/>
                    <stop path="c 0,-28.1782 0,-56.3564 0,-84.5345" style="stop-color:#538198;stop-opacity:1" id="stop2187"/>
                </meshpatch>
                <meshpatch id="meshpatch2189">
                    <stop path="c 56.4004,0 112.801,0 169.201,0" id="stop2191"/>
                    <stop path="c 0,28.1782 0,56.3564 0,84.5345" style="stop-color:#779db1;stop-opacity:1" id="stop2193"/>
                    <stop path="c -56.4004,0 -112.801,0 -169.201,0" style="stop-color:#538198;stop-opacity:1" id="stop2195"/>
                </meshpatch>
            </meshrow>
            <meshrow id="meshrow2197">
                <meshpatch id="meshpatch2199">
                    <stop path="c 0,28.1782 0,56.3564 0,84.5345" id="stop2201"/>
                    <stop path="c -56.4004,0 -112.801,0 -169.201,0" style="stop-color:#538198;stop-opacity:1" id="stop2203"/>
                    <stop path="c 0,-28.1782 0,-56.3564 0,-84.5345" style="stop-color:#779db1;stop-opacity:1" id="stop2205"/>
                </meshpatch>
                <meshpatch id="meshpatch2207">
                    <stop path="c 0,28.1782 0,56.3564 0,84.5345" id="stop2209"/>
                    <stop path="c -56.4004,0 -112.801,0 -169.201,0" style="stop-color:#538198;stop-opacity:1" id="stop2211"/>
                </meshpatch>
            </meshrow>
        </meshgradient>
    </defs>
    <g id="layer1" style="display:inline" transform="translate(0 -26.855)">
        <path style="display:inline;fill:url(#meshgradient2175);fill-opacity:1;stroke:none;stroke-width:.218631;stroke-linecap:round;stroke-linejoin:round" id="rect61" d="M0 26.855h338.667v115.623H0z"/>
        <path style="display:inline;mix-blend-mode:soft-light;fill:#538198;fill-opacity:1;stroke:none;stroke-width:.264273;stroke-linecap:round;stroke-linejoin:round;filter:url(#filter5099)" id="rect4565" transform="matrix(1.00078 0 0 .68388 -.132 26.765)" d="M.132.132h338.402v169.069H.132z"/>
    </g>
    <g id="g1263" transform="matrix(7.92283 0 0 7.92283 16.933 23.824)">
        <path d="M37.002 8.467h1.47V.622h-1.47z" style="-inkscape-font-specification:'Cantarell, @wght=700';fill:#ebebec;fill-opacity:1;stroke-width:.296692;filter:url(#filter5071)" id="path3285"/>
        <path d="M37.002 8.467h1.47V.622h-1.47z" style="-inkscape-font-specification:'Cantarell, @wght=700';fill:#ebebec;fill-opacity:1;stroke-width:.296692"/>
        <path d="M31.445 8.58c1.978 0 3.278-1.232 3.278-3.12V.622h-1.435v5.007c0 1.063-.622 1.685-1.673 1.685-1.165 0-1.843-.701-1.843-1.9V.623h-1.458v4.906c0 1.876 1.198 3.052 3.131 3.052z" style="-inkscape-font-specification:'Cantarell, @wght=700';fill:#ebebec;fill-opacity:1;stroke-width:.296692;filter:url(#filter5059)" id="path3287"/>
        <path d="M31.445 8.58c1.978 0 3.278-1.232 3.278-3.12V.622h-1.435v5.007c0 1.063-.622 1.685-1.673 1.685-1.165 0-1.843-.701-1.843-1.9V.623h-1.458v4.906c0 1.876 1.198 3.052 3.131 3.052z" style="-inkscape-font-specification:'Cantarell, @wght=700';fill:#ebebec;fill-opacity:1;stroke-width:.296692"/>
        <g id="layer1-9" transform="translate(0 .113)">
            <path style="-inkscape-font-specification:'Cantarell, @wght=700';display:inline;fill:#ebebec;fill-opacity:1;stroke-width:.296692;filter:url(#filter5047)" d="M21.7 8.354h1.435V2.86H21.7z" id="path3374"/>
            <path style="-inkscape-font-specification:'Cantarell, @wght=700';display:inline;fill:#ebebec;fill-opacity:1;stroke-width:.296692" d="M21.7 8.354h1.435V2.86H21.7z"/>
            <path style="-inkscape-font-specification:'Cantarell, @wght=700';display:inline;fill:url(#pattern2921);fill-opacity:1;stroke-width:.296709;filter:url(#filter5035)" d="M22.423 1.854c.543 0 .893-.35.893-.893s-.35-.893-.893-.893c-.531 0-.881.35-.881.893 0 .542.35.893.881.893z" id="path3377"/>
            <path style="-inkscape-font-specification:'Cantarell, @wght=700';display:inline;fill:url(#pattern2921);fill-opacity:1;stroke-width:.296709" d="M22.423 1.854c.543 0 .893-.35.893-.893s-.35-.893-.893-.893c-.531 0-.881.35-.881.893 0 .542.35.893.881.893z" id="path1503"/>
            <path id="path1210" style="-inkscape-font-specification:'Cantarell, @wght=700';display:inline;fill:#ebebec;fill-opacity:1;stroke-width:.210318" d="M84.68 1.393c-1.545.032-2.56 1.07-2.56 2.666 0 1.62 1.047 2.666 2.634 2.666 1.62 0 2.668-1.046 2.668-2.666 0-1.62-1.048-2.666-2.668-2.666h-.074zm.021.666h.057c1.215 0 2 .784 2 2 0 1.215-.785 2-2 2-1.19 0-1.975-.785-1.975-2 0-1.197.76-1.976 1.918-2zm0 .875c-.635.026-1.049.462-1.049 1.125 0 .683.442 1.125 1.112 1.125.683 0 1.125-.442 1.125-1.125 0-.684-.442-1.125-1.125-1.125h-.062z" transform="matrix(.26458 0 0 .26458 0 -.113)"/>
            <path id="path2651" style="-inkscape-font-specification:'Cantarell, @wght=700';display:inline;fill:#ebebec;fill-opacity:1;stroke-width:.210318;filter:url(#filter2663)" d="M84.68 1.393c-1.545.032-2.56 1.07-2.56 2.666 0 1.62 1.047 2.666 2.634 2.666 1.62 0 2.668-1.046 2.668-2.666 0-1.62-1.048-2.666-2.668-2.666h-.074zm.021.666h.057c1.215 0 2 .784 2 2 0 1.215-.785 2-2 2-1.19 0-1.975-.785-1.975-2 0-1.197.76-1.976 1.918-2zm0 .875c-.635.026-1.049.462-1.049 1.125 0 .683.442 1.125 1.112 1.125.683 0 1.125-.442 1.125-1.125 0-.684-.442-1.125-1.125-1.125h-.062z" transform="matrix(.26458 0 0 .26458 0 -.113)"/>
        </g>
        <path d="M18.11 8.467h1.436V5.03c0-1.322-.78-2.147-2.024-2.147-.79 0-1.514.35-2.034 1.062l.214.882c.373-.475.814-.69 1.323-.69.723 0 1.085.396 1.085 1.142zm-3.606 0h1.425V.113h-1.425z" style="-inkscape-font-specification:'Cantarell, @wght=700';fill:#ebebec;fill-opacity:1;stroke-width:.296692;filter:url(#filter5023)"/>
        <path d="M18.11 8.467h1.436V5.03c0-1.322-.78-2.147-2.024-2.147-.79 0-1.514.35-2.034 1.062l.214.882c.373-.475.814-.69 1.323-.69.723 0 1.085.396 1.085 1.142zm-3.606 0h1.425V.113h-1.425z" style="-inkscape-font-specification:'Cantarell, @wght=700';fill:#ebebec;fill-opacity:1;stroke-width:.296692" id="path3289"/>
        <path d="M11.322 8.467h1.028V5.166c0-1.48-.848-2.306-2.464-2.306a5.21 5.21 0 0 0-2.272.531l.339 1.006c.576-.226 1.12-.339 1.628-.339.881 0 1.356.34 1.356.995v2.362zM9.4 8.58c1.21 0 2.091-.69 2.351-1.877l-.463-.215c-.193.588-.746.961-1.413.961-.554 0-.927-.282-.927-.69 0-.53.644-.745 2.227-.745V5.21c-2.544 0-3.674.531-3.674 1.74 0 .984.746 1.629 1.899 1.629z" style="-inkscape-font-specification:'Cantarell, @wght=700';fill:#ebebec;fill-opacity:1;stroke-width:.296692;filter:url(#filter5011)"/>
        <path d="M11.322 8.467h1.028V5.166c0-1.48-.848-2.306-2.464-2.306a5.21 5.21 0 0 0-2.272.531l.339 1.006c.576-.226 1.12-.339 1.628-.339.881 0 1.356.34 1.356.995v2.362zM9.4 8.58c1.21 0 2.091-.69 2.351-1.877l-.463-.215c-.193.588-.746.961-1.413.961-.554 0-.927-.282-.927-.69 0-.53.644-.745 2.227-.745V5.21c-2.544 0-3.674.531-3.674 1.74 0 .984.746 1.629 1.899 1.629z" style="-inkscape-font-specification:'Cantarell, @wght=700';fill:#ebebec;fill-opacity:1;stroke-width:.296692" id="path3293"/>
        <g id="g997" style="display:inline">
            <path id="path3295" style="color:#000;fill:url(#pattern2567);fill-opacity:1;stroke-width:.8867;stroke-miterlimit:1;-inkscape-stroke:none;filter:url(#filter4999)" d="M.541 0A.549.549 0 0 0 0 .541v7.385c0 .293.248.54.541.54h1.393a.548.548 0 0 0 .542-.541V5.782l1.892 2.472a.542.542 0 0 0 .43.213h1.83c.422 0 .686-.545.424-.876V7.59L4.228 4.007 6.88.892C7.158.563 6.897 0 6.468 0h-1.67a.543.543 0 0 0-.416.194L2.476 2.48V.54A.548.548 0 0 0 1.935 0Z"/>
            <path id="path2666" style="color:#000;fill:url(#pattern2567);fill-opacity:1;stroke-width:.8867;stroke-miterlimit:1;-inkscape-stroke:none" d="M.541 0A.549.549 0 0 0 0 .541v7.385c0 .293.248.54.541.54h1.393a.548.548 0 0 0 .542-.541V5.782l1.892 2.472a.542.542 0 0 0 .43.213h1.83c.422 0 .686-.545.424-.876V7.59L4.228 4.007 6.88.892C7.158.563 6.897 0 6.468 0h-1.67a.543.543 0 0 0-.416.194L2.476 2.48V.54A.548.548 0 0 0 1.935 0Z"/>
            <path id="path2269" style="display:inline;fill:#ebebec;fill-opacity:1;fill-rule:nonzero;stroke:none;stroke-width:.0738915;filter:url(#filter2876)" d="M.541.443a.098.098 0 0 0-.098.098v7.384a.098.098 0 0 0 .098.098h1.394a.098.098 0 0 0 .098-.098V4.473L4.72 7.985a.098.098 0 0 0 .077.038h1.83a.098.098 0 0 0 .077-.158L3.655 3.996 6.542.604a.098.098 0 0 0-.074-.16h-1.67a.098.098 0 0 0-.076.034l-2.69 3.224V.542a.098.098 0 0 0-.097-.099z"/>
            <path id="path2624" style="display:inline;fill:#ebebec;fill-opacity:1;fill-rule:nonzero;stroke:none;stroke-width:.0738915" d="M.541.443a.098.098 0 0 0-.098.098v7.384a.098.098 0 0 0 .098.098h1.394a.098.098 0 0 0 .098-.098V4.473L4.72 7.985a.098.098 0 0 0 .077.038h1.83a.098.098 0 0 0 .077-.158L3.655 3.996 6.542.604a.098.098 0 0 0-.074-.16h-1.67a.098.098 0 0 0-.076.034l-2.69 3.224V.542a.098.098 0 0 0-.097-.099z"/>
        </g>
    </g>
    <script id="mesh_polyfill" type="text/javascript">
        !function(){const t=&quot;http://www.w3.org/2000/svg&quot;,e=&quot;http://www.w3.org/1999/xlink&quot;,s=&quot;http://www.w3.org/1999/xhtml&quot;,r=2;if(document.createElementNS(t,&quot;meshgradient&quot;).x)return;const n=(t,e,s,r)=&gt;{let n=new x(.5*(e.x+s.x),.5*(e.y+s.y)),o=new x(.5*(t.x+e.x),.5*(t.y+e.y)),i=new x(.5*(s.x+r.x),.5*(s.y+r.y)),a=new x(.5*(n.x+o.x),.5*(n.y+o.y)),h=new x(.5*(n.x+i.x),.5*(n.y+i.y)),l=new x(.5*(a.x+h.x),.5*(a.y+h.y));return[[t,o,a,l],[l,h,i,r]]},o=t=&gt;{let e=t[0].distSquared(t[1]),s=t[2].distSquared(t[3]),r=.25*t[0].distSquared(t[2]),n=.25*t[1].distSquared(t[3]),o=e&gt;s?e:s,i=r&gt;n?r:n;return 18*(o&gt;i?o:i)},i=(t,e)=&gt;Math.sqrt(t.distSquared(e)),a=(t,e)=&gt;t.scale(2/3).add(e.scale(1/3)),h=t=&gt;{let e,s,r,n,o,i,a,h=new g;return t.match(/(\w+\(\s*[^)]+\))+/g).forEach(t=&gt;{let l=t.match(/[\w.-]+/g),d=l.shift();switch(d){case&quot;translate&quot;:2===l.length?e=new g(1,0,0,1,l[0],l[1]):(console.error(&quot;mesh.js: translate does not have 2 arguments!&quot;),e=new g(1,0,0,1,0,0)),h=h.append(e);break;case&quot;scale&quot;:1===l.length?s=new g(l[0],0,0,l[0],0,0):2===l.length?s=new g(l[0],0,0,l[1],0,0):(console.error(&quot;mesh.js: scale does not have 1 or 2 arguments!&quot;),s=new g(1,0,0,1,0,0)),h=h.append(s);break;case&quot;rotate&quot;:if(3===l.length&amp;&amp;(e=new g(1,0,0,1,l[1],l[2]),h=h.append(e)),l[0]){r=l[0]*Math.PI/180;let t=Math.cos(r),e=Math.sin(r);Math.abs(t)&lt;1e-16&amp;&amp;(t=0),Math.abs(e)&lt;1e-16&amp;&amp;(e=0),a=new g(t,e,-e,t,0,0),h=h.append(a)}else console.error(&quot;math.js: No argument to rotate transform!&quot;);3===l.length&amp;&amp;(e=new g(1,0,0,1,-l[1],-l[2]),h=h.append(e));break;case&quot;skewX&quot;:l[0]?(r=l[0]*Math.PI/180,n=Math.tan(r),o=new g(1,0,n,1,0,0),h=h.append(o)):console.error(&quot;math.js: No argument to skewX transform!&quot;);break;case&quot;skewY&quot;:l[0]?(r=l[0]*Math.PI/180,n=Math.tan(r),i=new g(1,n,0,1,0,0),h=h.append(i)):console.error(&quot;math.js: No argument to skewY transform!&quot;);break;case&quot;matrix&quot;:6===l.length?h=h.append(new g(...l)):console.error(&quot;math.js: Incorrect number of arguments for matrix!&quot;);break;default:console.error(&quot;mesh.js: Unhandled transform type: &quot;+d)}}),h},l=t=&gt;{let e=[],s=t.split(/[ ,]+/);for(let t=0,r=s.length-1;t&lt;r;t+=2)e.push(new x(parseFloat(s[t]),parseFloat(s[t+1])));return e},d=(t,e)=&gt;{for(let s in e)t.setAttribute(s,e[s])},c=(t,e,s,r,n)=&gt;{let o,i,a=[0,0,0,0];for(let h=0;h&lt;3;++h)e[h]&lt;t[h]&amp;&amp;e[h]&lt;s[h]||t[h]&lt;e[h]&amp;&amp;s[h]&lt;e[h]?a[h]=0:(a[h]=.5*((e[h]-t[h])/r+(s[h]-e[h])/n),o=Math.abs(3*(e[h]-t[h])/r),i=Math.abs(3*(s[h]-e[h])/n),a[h]&gt;o?a[h]=o:a[h]&gt;i&amp;&amp;(a[h]=i));return a},u=[[1,0,0,0,0,0,0,0,0,0,0,0,0,0,0,0],[0,0,0,0,1,0,0,0,0,0,0,0,0,0,0,0],[-3,3,0,0,-2,-1,0,0,0,0,0,0,0,0,0,0],[2,-2,0,0,1,1,0,0,0,0,0,0,0,0,0,0],[0,0,0,0,0,0,0,0,1,0,0,0,0,0,0,0],[0,0,0,0,0,0,0,0,0,0,0,0,1,0,0,0],[0,0,0,0,0,0,0,0,-3,3,0,0,-2,-1,0,0],[0,0,0,0,0,0,0,0,2,-2,0,0,1,1,0,0],[-3,0,3,0,0,0,0,0,-2,0,-1,0,0,0,0,0],[0,0,0,0,-3,0,3,0,0,0,0,0,-2,0,-1,0],[9,-9,-9,9,6,3,-6,-3,6,-6,3,-3,4,2,2,1],[-6,6,6,-6,-3,-3,3,3,-4,4,-2,2,-2,-2,-1,-1],[2,0,-2,0,0,0,0,0,1,0,1,0,0,0,0,0],[0,0,0,0,2,0,-2,0,0,0,0,0,1,0,1,0],[-6,6,6,-6,-4,-2,4,2,-3,3,-3,3,-2,-1,-2,-1],[4,-4,-4,4,2,2,-2,-2,2,-2,2,-2,1,1,1,1]],f=t=&gt;{let e=[];for(let s=0;s&lt;16;++s){e[s]=0;for(let r=0;r&lt;16;++r)e[s]+=u[s][r]*t[r]}return e},p=(t,e,s)=&gt;{const r=e*e,n=s*s,o=e*e*e,i=s*s*s;return t[0]+t[1]*e+t[2]*r+t[3]*o+t[4]*s+t[5]*s*e+t[6]*s*r+t[7]*s*o+t[8]*n+t[9]*n*e+t[10]*n*r+t[11]*n*o+t[12]*i+t[13]*i*e+t[14]*i*r+t[15]*i*o},y=t=&gt;{let e=[],s=[],r=[];for(let s=0;s&lt;4;++s)e[s]=[],e[s][0]=n(t[0][s],t[1][s],t[2][s],t[3][s]),e[s][1]=[],e[s][1].push(...n(...e[s][0][0])),e[s][1].push(...n(...e[s][0][1])),e[s][2]=[],e[s][2].push(...n(...e[s][1][0])),e[s][2].push(...n(...e[s][1][1])),e[s][2].push(...n(...e[s][1][2])),e[s][2].push(...n(...e[s][1][3]));for(let t=0;t&lt;8;++t){s[t]=[];for(let r=0;r&lt;4;++r)s[t][r]=[],s[t][r][0]=n(e[0][2][t][r],e[1][2][t][r],e[2][2][t][r],e[3][2][t][r]),s[t][r][1]=[],s[t][r][1].push(...n(...s[t][r][0][0])),s[t][r][1].push(...n(...s[t][r][0][1])),s[t][r][2]=[],s[t][r][2].push(...n(...s[t][r][1][0])),s[t][r][2].push(...n(...s[t][r][1][1])),s[t][r][2].push(...n(...s[t][r][1][2])),s[t][r][2].push(...n(...s[t][r][1][3]))}for(let t=0;t&lt;8;++t){r[t]=[];for(let e=0;e&lt;8;++e)r[t][e]=[],r[t][e][0]=s[t][0][2][e],r[t][e][1]=s[t][1][2][e],r[t][e][2]=s[t][2][2][e],r[t][e][3]=s[t][3][2][e]}return r};class x{constructor(t,e){this.x=t||0,this.y=e||0}toString(){return`(x=${this.x}, y=${this.y})`}clone(){return new x(this.x,this.y)}add(t){return new x(this.x+t.x,this.y+t.y)}scale(t){return void 0===t.x?new x(this.x*t,this.y*t):new x(this.x*t.x,this.y*t.y)}distSquared(t){let e=this.x-t.x,s=this.y-t.y;return e*e+s*s}transform(t){let e=this.x*t.a+this.y*t.c+t.e,s=this.x*t.b+this.y*t.d+t.f;return new x(e,s)}}class g{constructor(t,e,s,r,n,o){void 0===t?(this.a=1,this.b=0,this.c=0,this.d=1,this.e=0,this.f=0):(this.a=t,this.b=e,this.c=s,this.d=r,this.e=n,this.f=o)}toString(){return`affine: ${this.a} ${this.c} ${this.e} \n       ${this.b} ${this.d} ${this.f}`}append(t){t instanceof g||console.error(&quot;mesh.js: argument to Affine.append is not affine!&quot;);let e=this.a*t.a+this.c*t.b,s=this.b*t.a+this.d*t.b,r=this.a*t.c+this.c*t.d,n=this.b*t.c+this.d*t.d,o=this.a*t.e+this.c*t.f+this.e,i=this.b*t.e+this.d*t.f+this.f;return new g(e,s,r,n,o,i)}}class w{constructor(t,e){this.nodes=t,this.colors=e}paintCurve(t,e){if(o(this.nodes)&gt;r){const s=n(...this.nodes);let r=[[],[]],o=[[],[]];for(let t=0;t&lt;4;++t)r[0][t]=this.colors[0][t],r[1][t]=(this.colors[0][t]+this.colors[1][t])/2,o[0][t]=r[1][t],o[1][t]=this.colors[1][t];let i=new w(s[0],r),a=new w(s[1],o);i.paintCurve(t,e),a.paintCurve(t,e)}else{let s=Math.round(this.nodes[0].x);if(s&gt;=0&amp;&amp;s&lt;e){let r=4*(~~this.nodes[0].y*e+s);t[r]=Math.round(this.colors[0][0]),t[r+1]=Math.round(this.colors[0][1]),t[r+2]=Math.round(this.colors[0][2]),t[r+3]=Math.round(this.colors[0][3])}}}}class m{constructor(t,e){this.nodes=t,this.colors=e}split(){let t=[[],[],[],[]],e=[[],[],[],[]],s=[[[],[]],[[],[]]],r=[[[],[]],[[],[]]];for(let s=0;s&lt;4;++s){const r=n(this.nodes[0][s],this.nodes[1][s],this.nodes[2][s],this.nodes[3][s]);t[0][s]=r[0][0],t[1][s]=r[0][1],t[2][s]=r[0][2],t[3][s]=r[0][3],e[0][s]=r[1][0],e[1][s]=r[1][1],e[2][s]=r[1][2],e[3][s]=r[1][3]}for(let t=0;t&lt;4;++t)s[0][0][t]=this.colors[0][0][t],s[0][1][t]=this.colors[0][1][t],s[1][0][t]=(this.colors[0][0][t]+this.colors[1][0][t])/2,s[1][1][t]=(this.colors[0][1][t]+this.colors[1][1][t])/2,r[0][0][t]=s[1][0][t],r[0][1][t]=s[1][1][t],r[1][0][t]=this.colors[1][0][t],r[1][1][t]=this.colors[1][1][t];return[new m(t,s),new m(e,r)]}paint(t,e){let s,n=!1;for(let t=0;t&lt;4;++t)if((s=o([this.nodes[0][t],this.nodes[1][t],this.nodes[2][t],this.nodes[3][t]]))&gt;r){n=!0;break}if(n){let s=this.split();s[0].paint(t,e),s[1].paint(t,e)}else{new w([...this.nodes[0]],[...this.colors[0]]).paintCurve(t,e)}}}class b{constructor(t){this.readMesh(t),this.type=t.getAttribute(&quot;type&quot;)||&quot;bilinear&quot;}readMesh(t){let e=[[]],s=[[]],r=Number(t.getAttribute(&quot;x&quot;)),n=Number(t.getAttribute(&quot;y&quot;));e[0][0]=new x(r,n);let o=t.children;for(let t=0,r=o.length;t&lt;r;++t){e[3*t+1]=[],e[3*t+2]=[],e[3*t+3]=[],s[t+1]=[];let r=o[t].children;for(let n=0,o=r.length;n&lt;o;++n){let o=r[n].children;for(let r=0,i=o.length;r&lt;i;++r){let i=r;0!==t&amp;&amp;++i;let h,d=o[r].getAttribute(&quot;path&quot;),c=&quot;l&quot;;null!=d&amp;&amp;(c=(h=d.match(/\s*([lLcC])\s*(.*)/))[1]);let u=l(h[2]);switch(c){case&quot;l&quot;:0===i?(e[3*t][3*n+3]=u[0].add(e[3*t][3*n]),e[3*t][3*n+1]=a(e[3*t][3*n],e[3*t][3*n+3]),e[3*t][3*n+2]=a(e[3*t][3*n+3],e[3*t][3*n])):1===i?(e[3*t+3][3*n+3]=u[0].add(e[3*t][3*n+3]),e[3*t+1][3*n+3]=a(e[3*t][3*n+3],e[3*t+3][3*n+3]),e[3*t+2][3*n+3]=a(e[3*t+3][3*n+3],e[3*t][3*n+3])):2===i?(0===n&amp;&amp;(e[3*t+3][3*n+0]=u[0].add(e[3*t+3][3*n+3])),e[3*t+3][3*n+1]=a(e[3*t+3][3*n],e[3*t+3][3*n+3]),e[3*t+3][3*n+2]=a(e[3*t+3][3*n+3],e[3*t+3][3*n])):(e[3*t+1][3*n]=a(e[3*t][3*n],e[3*t+3][3*n]),e[3*t+2][3*n]=a(e[3*t+3][3*n],e[3*t][3*n]));break;case&quot;L&quot;:0===i?(e[3*t][3*n+3]=u[0],e[3*t][3*n+1]=a(e[3*t][3*n],e[3*t][3*n+3]),e[3*t][3*n+2]=a(e[3*t][3*n+3],e[3*t][3*n])):1===i?(e[3*t+3][3*n+3]=u[0],e[3*t+1][3*n+3]=a(e[3*t][3*n+3],e[3*t+3][3*n+3]),e[3*t+2][3*n+3]=a(e[3*t+3][3*n+3],e[3*t][3*n+3])):2===i?(0===n&amp;&amp;(e[3*t+3][3*n+0]=u[0]),e[3*t+3][3*n+1]=a(e[3*t+3][3*n],e[3*t+3][3*n+3]),e[3*t+3][3*n+2]=a(e[3*t+3][3*n+3],e[3*t+3][3*n])):(e[3*t+1][3*n]=a(e[3*t][3*n],e[3*t+3][3*n]),e[3*t+2][3*n]=a(e[3*t+3][3*n],e[3*t][3*n]));break;case&quot;c&quot;:0===i?(e[3*t][3*n+1]=u[0].add(e[3*t][3*n]),e[3*t][3*n+2]=u[1].add(e[3*t][3*n]),e[3*t][3*n+3]=u[2].add(e[3*t][3*n])):1===i?(e[3*t+1][3*n+3]=u[0].add(e[3*t][3*n+3]),e[3*t+2][3*n+3]=u[1].add(e[3*t][3*n+3]),e[3*t+3][3*n+3]=u[2].add(e[3*t][3*n+3])):2===i?(e[3*t+3][3*n+2]=u[0].add(e[3*t+3][3*n+3]),e[3*t+3][3*n+1]=u[1].add(e[3*t+3][3*n+3]),0===n&amp;&amp;(e[3*t+3][3*n+0]=u[2].add(e[3*t+3][3*n+3]))):(e[3*t+2][3*n]=u[0].add(e[3*t+3][3*n]),e[3*t+1][3*n]=u[1].add(e[3*t+3][3*n]));break;case&quot;C&quot;:0===i?(e[3*t][3*n+1]=u[0],e[3*t][3*n+2]=u[1],e[3*t][3*n+3]=u[2]):1===i?(e[3*t+1][3*n+3]=u[0],e[3*t+2][3*n+3]=u[1],e[3*t+3][3*n+3]=u[2]):2===i?(e[3*t+3][3*n+2]=u[0],e[3*t+3][3*n+1]=u[1],0===n&amp;&amp;(e[3*t+3][3*n+0]=u[2])):(e[3*t+2][3*n]=u[0],e[3*t+1][3*n]=u[1]);break;default:console.error(&quot;mesh.js: &quot;+c+&quot; invalid path type.&quot;)}if(0===t&amp;&amp;0===n||r&gt;0){let e=window.getComputedStyle(o[r]).stopColor.match(/^rgb\s*\(\s*(\d+)\s*,\s*(\d+)\s*,\s*(\d+)\s*\)$/i),a=window.getComputedStyle(o[r]).stopOpacity,h=255;a&amp;&amp;(h=Math.floor(255*a)),e&amp;&amp;(0===i?(s[t][n]=[],s[t][n][0]=Math.floor(e[1]),s[t][n][1]=Math.floor(e[2]),s[t][n][2]=Math.floor(e[3]),s[t][n][3]=h):1===i?(s[t][n+1]=[],s[t][n+1][0]=Math.floor(e[1]),s[t][n+1][1]=Math.floor(e[2]),s[t][n+1][2]=Math.floor(e[3]),s[t][n+1][3]=h):2===i?(s[t+1][n+1]=[],s[t+1][n+1][0]=Math.floor(e[1]),s[t+1][n+1][1]=Math.floor(e[2]),s[t+1][n+1][2]=Math.floor(e[3]),s[t+1][n+1][3]=h):3===i&amp;&amp;(s[t+1][n]=[],s[t+1][n][0]=Math.floor(e[1]),s[t+1][n][1]=Math.floor(e[2]),s[t+1][n][2]=Math.floor(e[3]),s[t+1][n][3]=h))}}e[3*t+1][3*n+1]=new x,e[3*t+1][3*n+2]=new x,e[3*t+2][3*n+1]=new x,e[3*t+2][3*n+2]=new x,e[3*t+1][3*n+1].x=(-4*e[3*t][3*n].x+6*(e[3*t][3*n+1].x+e[3*t+1][3*n].x)+-2*(e[3*t][3*n+3].x+e[3*t+3][3*n].x)+3*(e[3*t+3][3*n+1].x+e[3*t+1][3*n+3].x)+-1*e[3*t+3][3*n+3].x)/9,e[3*t+1][3*n+2].x=(-4*e[3*t][3*n+3].x+6*(e[3*t][3*n+2].x+e[3*t+1][3*n+3].x)+-2*(e[3*t][3*n].x+e[3*t+3][3*n+3].x)+3*(e[3*t+3][3*n+2].x+e[3*t+1][3*n].x)+-1*e[3*t+3][3*n].x)/9,e[3*t+2][3*n+1].x=(-4*e[3*t+3][3*n].x+6*(e[3*t+3][3*n+1].x+e[3*t+2][3*n].x)+-2*(e[3*t+3][3*n+3].x+e[3*t][3*n].x)+3*(e[3*t][3*n+1].x+e[3*t+2][3*n+3].x)+-1*e[3*t][3*n+3].x)/9,e[3*t+2][3*n+2].x=(-4*e[3*t+3][3*n+3].x+6*(e[3*t+3][3*n+2].x+e[3*t+2][3*n+3].x)+-2*(e[3*t+3][3*n].x+e[3*t][3*n+3].x)+3*(e[3*t][3*n+2].x+e[3*t+2][3*n].x)+-1*e[3*t][3*n].x)/9,e[3*t+1][3*n+1].y=(-4*e[3*t][3*n].y+6*(e[3*t][3*n+1].y+e[3*t+1][3*n].y)+-2*(e[3*t][3*n+3].y+e[3*t+3][3*n].y)+3*(e[3*t+3][3*n+1].y+e[3*t+1][3*n+3].y)+-1*e[3*t+3][3*n+3].y)/9,e[3*t+1][3*n+2].y=(-4*e[3*t][3*n+3].y+6*(e[3*t][3*n+2].y+e[3*t+1][3*n+3].y)+-2*(e[3*t][3*n].y+e[3*t+3][3*n+3].y)+3*(e[3*t+3][3*n+2].y+e[3*t+1][3*n].y)+-1*e[3*t+3][3*n].y)/9,e[3*t+2][3*n+1].y=(-4*e[3*t+3][3*n].y+6*(e[3*t+3][3*n+1].y+e[3*t+2][3*n].y)+-2*(e[3*t+3][3*n+3].y+e[3*t][3*n].y)+3*(e[3*t][3*n+1].y+e[3*t+2][3*n+3].y)+-1*e[3*t][3*n+3].y)/9,e[3*t+2][3*n+2].y=(-4*e[3*t+3][3*n+3].y+6*(e[3*t+3][3*n+2].y+e[3*t+2][3*n+3].y)+-2*(e[3*t+3][3*n].y+e[3*t][3*n+3].y)+3*(e[3*t][3*n+2].y+e[3*t+2][3*n].y)+-1*e[3*t][3*n].y)/9}}this.nodes=e,this.colors=s}paintMesh(t,e){let s=(this.nodes.length-1)/3,r=(this.nodes[0].length-1)/3;if(&quot;bilinear&quot;===this.type||s&lt;2||r&lt;2){let n;for(let o=0;o&lt;s;++o)for(let s=0;s&lt;r;++s){let r=[];for(let t=3*o,e=3*o+4;t&lt;e;++t)r.push(this.nodes[t].slice(3*s,3*s+4));let i=[];i.push(this.colors[o].slice(s,s+2)),i.push(this.colors[o+1].slice(s,s+2)),(n=new m(r,i)).paint(t,e)}}else{let n,o,a,h,l,d,u;const x=s,g=r;s++,r++;let w=new Array(s);for(let t=0;t&lt;s;++t){w[t]=new Array(r);for(let e=0;e&lt;r;++e)w[t][e]=[],w[t][e][0]=this.nodes[3*t][3*e],w[t][e][1]=this.colors[t][e]}for(let t=0;t&lt;s;++t)for(let e=0;e&lt;r;++e)0!==t&amp;&amp;t!==x&amp;&amp;(n=i(w[t-1][e][0],w[t][e][0]),o=i(w[t+1][e][0],w[t][e][0]),w[t][e][2]=c(w[t-1][e][1],w[t][e][1],w[t+1][e][1],n,o)),0!==e&amp;&amp;e!==g&amp;&amp;(n=i(w[t][e-1][0],w[t][e][0]),o=i(w[t][e+1][0],w[t][e][0]),w[t][e][3]=c(w[t][e-1][1],w[t][e][1],w[t][e+1][1],n,o));for(let t=0;t&lt;r;++t){w[0][t][2]=[],w[x][t][2]=[];for(let e=0;e&lt;4;++e)n=i(w[1][t][0],w[0][t][0]),o=i(w[x][t][0],w[x-1][t][0]),w[0][t][2][e]=n&gt;0?2*(w[1][t][1][e]-w[0][t][1][e])/n-w[1][t][2][e]:0,w[x][t][2][e]=o&gt;0?2*(w[x][t][1][e]-w[x-1][t][1][e])/o-w[x-1][t][2][e]:0}for(let t=0;t&lt;s;++t){w[t][0][3]=[],w[t][g][3]=[];for(let e=0;e&lt;4;++e)n=i(w[t][1][0],w[t][0][0]),o=i(w[t][g][0],w[t][g-1][0]),w[t][0][3][e]=n&gt;0?2*(w[t][1][1][e]-w[t][0][1][e])/n-w[t][1][3][e]:0,w[t][g][3][e]=o&gt;0?2*(w[t][g][1][e]-w[t][g-1][1][e])/o-w[t][g-1][3][e]:0}for(let s=0;s&lt;x;++s)for(let r=0;r&lt;g;++r){let n=i(w[s][r][0],w[s+1][r][0]),o=i(w[s][r+1][0],w[s+1][r+1][0]),c=i(w[s][r][0],w[s][r+1][0]),x=i(w[s+1][r][0],w[s+1][r+1][0]),g=[[],[],[],[]];for(let t=0;t&lt;4;++t){(d=[])[0]=w[s][r][1][t],d[1]=w[s+1][r][1][t],d[2]=w[s][r+1][1][t],d[3]=w[s+1][r+1][1][t],d[4]=w[s][r][2][t]*n,d[5]=w[s+1][r][2][t]*n,d[6]=w[s][r+1][2][t]*o,d[7]=w[s+1][r+1][2][t]*o,d[8]=w[s][r][3][t]*c,d[9]=w[s+1][r][3][t]*x,d[10]=w[s][r+1][3][t]*c,d[11]=w[s+1][r+1][3][t]*x,d[12]=0,d[13]=0,d[14]=0,d[15]=0,u=f(d);for(let e=0;e&lt;9;++e){g[t][e]=[];for(let s=0;s&lt;9;++s)g[t][e][s]=p(u,e/8,s/8),g[t][e][s]&gt;255?g[t][e][s]=255:g[t][e][s]&lt;0&amp;&amp;(g[t][e][s]=0)}}h=[];for(let t=3*s,e=3*s+4;t&lt;e;++t)h.push(this.nodes[t].slice(3*r,3*r+4));l=y(h);for(let s=0;s&lt;8;++s)for(let r=0;r&lt;8;++r)(a=new m(l[s][r],[[[g[0][s][r],g[1][s][r],g[2][s][r],g[3][s][r]],[g[0][s][r+1],g[1][s][r+1],g[2][s][r+1],g[3][s][r+1]]],[[g[0][s+1][r],g[1][s+1][r],g[2][s+1][r],g[3][s+1][r]],[g[0][s+1][r+1],g[1][s+1][r+1],g[2][s+1][r+1],g[3][s+1][r+1]]]])).paint(t,e)}}}transform(t){if(t instanceof x)for(let e=0,s=this.nodes.length;e&lt;s;++e)for(let s=0,r=this.nodes[0].length;s&lt;r;++s)this.nodes[e][s]=this.nodes[e][s].add(t);else if(t instanceof g)for(let e=0,s=this.nodes.length;e&lt;s;++e)for(let s=0,r=this.nodes[0].length;s&lt;r;++s)this.nodes[e][s]=this.nodes[e][s].transform(t)}scale(t){for(let e=0,s=this.nodes.length;e&lt;s;++e)for(let s=0,r=this.nodes[0].length;s&lt;r;++s)this.nodes[e][s]=this.nodes[e][s].scale(t)}}document.querySelectorAll(&quot;rect,circle,ellipse,path,text&quot;).forEach((r,n)=&gt;{let o=r.getAttribute(&quot;id&quot;);o||(o=&quot;patchjs_shape&quot;+n,r.setAttribute(&quot;id&quot;,o));const i=r.style.fill.match(/^url\(\s*&quot;?\s*#([^\s&quot;]+)&quot;?\s*\)/),a=r.style.stroke.match(/^url\(\s*&quot;?\s*#([^\s&quot;]+)&quot;?\s*\)/);if(i&amp;&amp;i[1]){const a=document.getElementById(i[1]);if(a&amp;&amp;&quot;meshgradient&quot;===a.nodeName){const i=r.getBBox();let l=document.createElementNS(s,&quot;canvas&quot;);d(l,{width:i.width,height:i.height});const c=l.getContext(&quot;2d&quot;);let u=c.createImageData(i.width,i.height);const f=new b(a);&quot;objectBoundingBox&quot;===a.getAttribute(&quot;gradientUnits&quot;)&amp;&amp;f.scale(new x(i.width,i.height));const p=a.getAttribute(&quot;gradientTransform&quot;);null!=p&amp;&amp;f.transform(h(p)),&quot;userSpaceOnUse&quot;===a.getAttribute(&quot;gradientUnits&quot;)&amp;&amp;f.transform(new x(-i.x,-i.y)),f.paintMesh(u.data,l.width),c.putImageData(u,0,0);const y=document.createElementNS(t,&quot;image&quot;);d(y,{width:i.width,height:i.height,x:i.x,y:i.y});let g=l.toDataURL();y.setAttributeNS(e,&quot;xlink:href&quot;,g),r.parentNode.insertBefore(y,r),r.style.fill=&quot;none&quot;;const w=document.createElementNS(t,&quot;use&quot;);w.setAttributeNS(e,&quot;xlink:href&quot;,&quot;#&quot;+o);const m=&quot;patchjs_clip&quot;+n,M=document.createElementNS(t,&quot;clipPath&quot;);M.setAttribute(&quot;id&quot;,m),M.appendChild(w),r.parentElement.insertBefore(M,r),y.setAttribute(&quot;clip-path&quot;,&quot;url(#&quot;+m+&quot;)&quot;),u=null,l=null,g=null}}if(a&amp;&amp;a[1]){const o=document.getElementById(a[1]);if(o&amp;&amp;&quot;meshgradient&quot;===o.nodeName){const i=parseFloat(r.style.strokeWidth.slice(0,-2))*(parseFloat(r.style.strokeMiterlimit)||parseFloat(r.getAttribute(&quot;stroke-miterlimit&quot;))||1),a=r.getBBox(),l=Math.trunc(a.width+i),c=Math.trunc(a.height+i),u=Math.trunc(a.x-i/2),f=Math.trunc(a.y-i/2);let p=document.createElementNS(s,&quot;canvas&quot;);d(p,{width:l,height:c});const y=p.getContext(&quot;2d&quot;);let g=y.createImageData(l,c);const w=new b(o);&quot;objectBoundingBox&quot;===o.getAttribute(&quot;gradientUnits&quot;)&amp;&amp;w.scale(new x(l,c));const m=o.getAttribute(&quot;gradientTransform&quot;);null!=m&amp;&amp;w.transform(h(m)),&quot;userSpaceOnUse&quot;===o.getAttribute(&quot;gradientUnits&quot;)&amp;&amp;w.transform(new x(-u,-f)),w.paintMesh(g.data,p.width),y.putImageData(g,0,0);const M=document.createElementNS(t,&quot;image&quot;);d(M,{width:l,height:c,x:0,y:0});let S=p.toDataURL();M.setAttributeNS(e,&quot;xlink:href&quot;,S);const k=&quot;pattern_clip&quot;+n,A=document.createElementNS(t,&quot;pattern&quot;);d(A,{id:k,patternUnits:&quot;userSpaceOnUse&quot;,width:l,height:c,x:u,y:f}),A.appendChild(M),o.parentNode.appendChild(A),r.style.stroke=&quot;url(#&quot;+k+&quot;)&quot;,g=null,p=null,S=null}}})}();
    </script>
</svg>
