<svg width="286.974" height="64" viewBox="0 0 75.929 16.933" version="1.1" xmlns:xlink="http://www.w3.org/1999/xlink" xmlns="http://www.w3.org/2000/svg">
    <defs>
        <pattern xlink:href="#a" id="b" patternTransform="matrix(1.08711 0 0 3.86528 23.321 -4.03)"/>
        <pattern xlink:href="#a" id="d" patternTransform="matrix(2.24896 0 0 1.32292 -1.063 -1.285)"/>
        <pattern patternUnits="userSpaceOnUse" width="4" height="1" patternTransform="translate(.981 -14.855)" id="a">
            <path style="fill:#c28f48;fill-opacity:1;stroke:none;stroke-width:12;stroke-miterlimit:1" d="M0 0h1v1H0z"/>
            <path style="fill:#4a8f66;fill-opacity:1;stroke:none;stroke-width:12;stroke-miterlimit:1" d="M1 0h1v1H1z"/>
            <path style="fill:#5a85af;fill-opacity:1;stroke:none;stroke-width:12;stroke-miterlimit:1" d="M2 0h1v1H2z"/>
            <path style="fill:#bc604d;fill-opacity:1;stroke:none;stroke-width:12;stroke-miterlimit:1" d="M3 0h1v1H3z"/>
        </pattern>
        <filter style="color-interpolation-filters:sRGB" id="e" x="-.038" y="-.032" width="1.076" height="1.063">
            <feFlood flood-opacity=".251" flood-color="#000" result="flood"/>
            <feComposite in="flood" in2="SourceGraphic" operator="in" result="composite1"/>
            <feGaussianBlur in="composite1" stdDeviation=".1" result="blur"/>
            <feOffset dx="0" dy="0" result="offset"/>
            <feComposite in="offset" in2="SourceGraphic" operator="out" result="composite2"/>
        </filter>
        <filter style="color-interpolation-filters:sRGB" id="c" x="-.045" y="-.045" width="1.091" height="1.09">
            <feFlood flood-opacity=".251" flood-color="#000" result="flood"/>
            <feComposite in="flood" in2="SourceGraphic" operator="out" result="composite1"/>
            <feGaussianBlur in="composite1" stdDeviation=".1" result="blur"/>
            <feOffset dx="0" dy="0" result="offset"/>
            <feComposite in="offset" in2="SourceGraphic" operator="in" result="composite2"/>
        </filter>
    </defs>
    <path d="M73.028 16.71h2.9V1.227h-2.9zM62.062 16.933c3.904 0 6.47-2.431 6.47-6.157V1.227h-2.834v9.883c0 2.098-1.227 3.325-3.302 3.325-2.298 0-3.636-1.384-3.636-3.748v-9.46h-2.878v9.683c0 3.703 2.365 6.023 6.18 6.023z" style="-inkscape-font-specification:'Cantarell, @wght=700';fill-opacity:1;stroke-width:.585566;fill:currentColor"/>
    <g style="display:inline">
        <path style="-inkscape-font-specification:'Cantarell, @wght=700';stroke-width:.585566;fill:currentColor" d="M24.1 12.42h2.833V1.578h-2.834z" transform="translate(18.729 4.29)"/>
        <path style="-inkscape-font-specification:'Cantarell, @wght=700';display:inline;fill:url(#b);fill-opacity:1;stroke-width:.5856" d="M25.527-.408c1.07 0 1.763-.691 1.763-1.762 0-1.071-.692-1.763-1.763-1.763-1.049 0-1.74.692-1.74 1.763 0 1.07.691 1.762 1.74 1.762z" transform="translate(18.729 4.29)"/>
        <path style="-inkscape-font-specification:'Cantarell, @wght=700';display:inline;fill:#ebebec;fill-opacity:1;stroke-width:.109827" d="M25.49-3.563c-.806.017-1.337.56-1.337 1.393 0 .846.548 1.392 1.376 1.392.847 0 1.394-.546 1.394-1.392 0-.847-.547-1.393-1.394-1.393h-.038zm.012.348h.03c.634 0 1.044.41 1.044 1.045 0 .634-.41 1.044-1.045 1.044-.621 0-1.03-.41-1.03-1.044 0-.625.396-1.032 1-1.045zm0 .457c-.332.014-.548.242-.548.588 0 .357.23.587.58.587.358 0 .588-.23.588-.587 0-.358-.23-.588-.588-.588h-.032z" transform="translate(18.729 4.29)"/>
        <path style="-inkscape-font-specification:'Cantarell, @wght=700';display:inline;fill:#ebebec;fill-opacity:1;stroke-width:.210318;filter:url(#c)" d="M84.68 1.393c-1.545.032-2.56 1.07-2.56 2.666 0 1.62 1.047 2.666 2.634 2.666 1.62 0 2.668-1.046 2.668-2.666 0-1.62-1.048-2.666-2.668-2.666h-.074zm.021.666h.057c1.215 0 2 .784 2 2 0 1.215-.785 2-2 2-1.19 0-1.975-.785-1.975-2 0-1.197.76-1.976 1.918-2zm0 .875c-.635.026-1.049.462-1.049 1.125 0 .683.442 1.125 1.112 1.125.683 0 1.125-.442 1.125-1.125 0-.684-.442-1.125-1.125-1.125h-.062z" transform="scale(.5222)"/>
    </g>
    <path d="M35.743 16.71h2.834V9.928c0-2.61-1.54-4.239-3.994-4.239-1.562 0-2.99.692-4.016 2.097l.424 1.74c.736-.937 1.606-1.36 2.61-1.36 1.428 0 2.142.78 2.142 2.253zm-7.117 0h2.811V.223h-2.81ZM22.345 16.71h2.03v-6.514c0-2.923-1.673-4.552-4.864-4.552-1.561 0-3.212.402-4.484 1.049l.67 1.986c1.137-.447 2.208-.67 3.212-.67 1.74 0 2.677.67 2.677 1.964v4.662zm-3.793.223c2.387 0 4.127-1.36 4.64-3.703l-.914-.424c-.38 1.16-1.473 1.896-2.789 1.896-1.093 0-1.83-.557-1.83-1.36 0-1.05 1.272-1.473 4.396-1.473v-1.584c-5.02 0-7.251 1.049-7.251 3.436 0 1.94 1.472 3.212 3.748 3.212z" style="-inkscape-font-specification:'Cantarell, @wght=700';fill-opacity:1;stroke-width:.585566;fill:currentColor"/>
    <g style="display:inline">
        <path style="color:#000;fill:url(#d);fill-opacity:1;stroke-width:.8867;stroke-miterlimit:1;-inkscape-stroke:none" d="M.541 0A.549.549 0 0 0 0 .541v7.385c0 .293.248.54.541.54h1.393a.548.548 0 0 0 .542-.541V5.782l1.892 2.472a.542.542 0 0 0 .43.213h1.83c.422 0 .686-.545.424-.876V7.59L4.228 4.007 6.88.892C7.158.563 6.897 0 6.468 0h-1.67a.543.543 0 0 0-.416.194L2.476 2.48V.54A.548.548 0 0 0 1.935 0Z" transform="scale(1.97365)"/>
        <path style="display:inline;fill:#ebebec;fill-opacity:1;fill-rule:nonzero;stroke:none;stroke-width:.0738915;filter:url(#e)" d="M.541.443a.098.098 0 0 0-.098.098v7.384a.098.098 0 0 0 .098.098h1.394a.098.098 0 0 0 .098-.098V4.473L4.72 7.985a.098.098 0 0 0 .077.038h1.83a.098.098 0 0 0 .077-.158L3.655 3.996 6.542.604a.098.098 0 0 0-.074-.16h-1.67a.098.098 0 0 0-.076.034l-2.69 3.224V.542a.098.098 0 0 0-.097-.099z" transform="scale(1.97365)"/>
        <path style="display:inline;fill:#ebebec;fill-opacity:1;fill-rule:nonzero;stroke:none;stroke-width:.0738915" d="M.541.443a.098.098 0 0 0-.098.098v7.384a.098.098 0 0 0 .098.098h1.394a.098.098 0 0 0 .098-.098V4.473L4.72 7.985a.098.098 0 0 0 .077.038h1.83a.098.098 0 0 0 .077-.158L3.655 3.996 6.542.604a.098.098 0 0 0-.074-.16h-1.67a.098.098 0 0 0-.076.034l-2.69 3.224V.542a.098.098 0 0 0-.097-.099z" transform="scale(1.97365)"/>
    </g>
</svg>
